<svg width="263" height="133" viewBox="0 0 263 133" fill="none" xmlns="http://www.w3.org/2000/svg">
<path fill-rule="evenodd" clip-rule="evenodd" d="M87.5 28.1707C93.3933 28.1707 98.1707 23.3933 98.1707 17.5C98.1707 11.6067 93.3933 6.82927 87.5 6.82927C81.6067 6.82927 76.8293 11.6067 76.8293 17.5C76.8293 23.3933 81.6067 28.1707 87.5 28.1707ZM87.5 35C97.165 35 105 27.165 105 17.5C105 7.83502 97.165 0 87.5 0C77.835 0 70 7.83502 70 17.5C70 27.165 77.835 35 87.5 35Z" fill="#FA0808"/>
<path d="M22.536 93.64L21.672 75.688L53.832 41.8H71.112L42.12 73L33.48 82.216L22.536 93.64ZM8.61601 109V41.8H24.072V109H8.61601ZM54.6 109L30.696 79.72L40.872 68.68L72.744 109H54.6ZM79.6785 109V41.8H95.2305V109H79.6785ZM111.179 109V41.8H124.043L163.691 90.184H157.451V41.8H172.811V109H160.043L120.299 60.616H126.539V109H111.179ZM221.35 110.152C216.038 110.152 211.11 109.288 206.566 107.56C202.086 105.832 198.182 103.4 194.854 100.264C191.59 97.128 189.03 93.448 187.174 89.224C185.382 85 184.486 80.392 184.486 75.4C184.486 70.408 185.382 65.8 187.174 61.576C189.03 57.352 191.622 53.672 194.95 50.536C198.278 47.4 202.182 44.968 206.662 43.24C211.142 41.512 216.006 40.648 221.254 40.648C226.566 40.648 231.43 41.512 235.846 43.24C240.326 44.968 244.198 47.4 247.462 50.536C250.79 53.672 253.382 57.352 255.238 61.576C257.094 65.736 258.022 70.344 258.022 75.4C258.022 80.392 257.094 85.032 255.238 89.32C253.382 93.544 250.79 97.224 247.462 100.36C244.198 103.432 240.326 105.832 235.846 107.56C231.43 109.288 226.598 110.152 221.35 110.152ZM221.254 96.904C224.262 96.904 227.014 96.392 229.51 95.368C232.07 94.344 234.31 92.872 236.23 90.952C238.15 89.032 239.622 86.76 240.646 84.136C241.734 81.512 242.278 78.6 242.278 75.4C242.278 72.2 241.734 69.288 240.646 66.664C239.622 64.04 238.15 61.768 236.23 59.848C234.374 57.928 232.166 56.456 229.606 55.432C227.046 54.408 224.262 53.896 221.254 53.896C218.246 53.896 215.462 54.408 212.902 55.432C210.406 56.456 208.198 57.928 206.278 59.848C204.358 61.768 202.854 64.04 201.766 66.664C200.742 69.288 200.23 72.2 200.23 75.4C200.23 78.536 200.742 81.448 201.766 84.136C202.854 86.76 204.326 89.032 206.182 90.952C208.102 92.872 210.342 94.344 212.902 95.368C215.462 96.392 218.246 96.904 221.254 96.904Z" fill="#08F2FA"/>
</svg>
